#!OML:ASF E:\emotionWalksFemale\Project 1\Capture day 1\Session 1\Female1.ASF
:FULLY-SPECIFIED
:DEGREES
1283
root 15.7747 15.2009 -8.50481 12.1926 -65.0816 -368.223
lowerback 8.64515 6.35858 5.36194
upperback -3.69034 9.22095 0.779062
thorax -8.03086 4.22975 -3.50602
lowerneck -9.36078 -5.30476 -11.9882
upperneck 11.8961 -8.78559 21.4812
head 6.68718 -3.48834 8.29812
rclavicle -8.79001e-016 2.78299e-015
rhumerus -23.0137 10.9286 -86.1419
rradius 38.246
rwrist 14.367
rhand -7.20239 -51.5519
rfingers 7.12502
rthumb 18.6762 -440.675
lclavicle -8.79001e-016 2.78299e-015
lhumerus -68.3275 3.96247 85.7976
lradius 32.846
lwrist -22.8991
lhand 8.2599 -30.9415
lfingers 7.12502
lthumb 33.4741 -4.04251
rfemur 17.5781 15.3312 40.4262
rtibia 6.36111e-015
rfoot -14.8346 -22.8891
rtoes 7.98883
lfemur -39.4249 -16.8574 -10.3252
ltibia 31.868
lfoot -23.3697 21.5328
ltoes -16.1096
1284
root 15.6193 15.1871 -8.38456 12.9219 -65.3617 -368.981
lowerback 8.73117 6.45262 5.63205
upperback -3.81648 9.39492 0.825723
thorax -8.16983 4.29138 -3.644
lowerneck -9.92638 -5.30288 -11.7917
upperneck 12.4792 -8.84164 21.294
head 6.9644 -3.46559 8.19955
rclavicle -2.67148e-014 -1.15295e-014
rhumerus -22.8369 12.0249 -86.5921
rradius 38.8509
rwrist 13.5443
rhand -7.73499 -52.8769
rfingers 7.12502
rthumb 18.1638 -442.049
lclavicle -2.67148e-014 -1.15295e-014
lhumerus -68.7593 3.86184 86.087
lradius 33.1165
lwrist -21.819
lhand 7.48933 -30.7478
lfingers 7.12502
lthumb 32.7413 -3.69334
rfemur 18.2417 14.7363 40.5477
rtibia -2.22639e-014
rfoot -14.4967 -22.5455
rtoes 8.87504
lfemur -40.2909 -21.1813 -7.65448
ltibia 30.1891
lfoot -25.3841 24.4576
ltoes -9.51218
1285
root 15.456 15.1738 -8.25952 13.3085 -65.9076 -369.45
lowerback 8.7014 6.62582 5.81282
upperback -3.83978 9.64439 0.790849
thorax -8.12096 4.40431 -3.80369
lowerneck -10.192 -5.28033 -11.6519
upperneck 12.6694 -8.84215 21.2632
head 7.06559 -3.43981 8.16588
rclavicle 3.91062e-014 3.10104e-014
rhumerus -22.6579 13.0488 -86.9587
rradius 39.3452
rwrist 12.7608
rhand -8.01415 -52.5514
rfingers 7.12502
rthumb 17.8952 -441.748
lclavicle 3.91062e-014 3.10104e-014
lhumerus -68.8561 3.79337 86.0797
lradius 33.137
lwrist -21.1127
lhand 7.11588 -30.7404
lfingers 7.12502
lthumb 32.386 -3.61261
rfemur 19.1494 14.3446 40.4641
rtibia 1.59028e-014
rfoot -14.7198 -21.9855
rtoes 11.1764
lfemur -41.2588 -26.0477 -4.67605
ltibia 28.7935
lfoot -28.3936 28.4224
ltoes -2.08866
1286
root 15.2932 15.1555 -8.13841 13.4036 -66.3659 -369.621
lowerback 8.76983 6.70017 5.79099
upperback -3.90068 9.74928 0.782136
thorax -8.21911 4.44997 -3.82891
lowerneck -10.2468 -5.20894 -11.4657
upperneck 12.7132 -8.75837 21.1587
head 7.06 -3.3929 8.10415
rclavicle 4.64061e-014 1.55052e-014
rhumerus -22.4947 13.9211 -87.2562
rradius 39.7896
rwrist 12.673
rhand -8.61527 -51.5725
rfingers 7.12502
rthumb 17.3167 -440.821
lclavicle 4.64061e-014 1.55052e-014
lhumerus -68.9563 4.12625 85.568
lradius 33.0594
lwrist -21.03
lhand 6.68319 -31.0664
lfingers 7.12502
lthumb 31.9741 -3.85529
rfemur 20.0406 13.8465 40.2471
rtibia -1.27222e-014
rfoot -14.7737 -21.2216
rtoes 11.456
lfemur -42.5445 -30.6742 -1.67193
ltibia 27.6823
lfoot -32.3494 31.9967
ltoes 6.22652
1287
root 15.1312 15.1349 -8.01688 13.3454 -66.7396 -369.612
lowerback 8.88529 6.71637 5.65292
upperback -3.98335 9.76949 0.805389
thorax -8.40076 4.4568 -3.75843
lowerneck -10.4184 -5.1397 -11.2801
upperneck 12.8637 -8.66562 20.9392
head 7.10184 -3.33834 8.00409
rclavicle -3.09537e-014 2.38542e-015
rhumerus -22.2759 14.6594 -87.5762
rradius 40.1089
rwrist 13.0266
rhand -9.00571 -51.3882
rfingers 7.12502
rthumb 16.9409 -440.669
lclavicle -3.09537e-014 2.38542e-015
lhumerus -68.9996 4.67406 84.8806
lradius 32.7677
lwrist -21.4707
lhand 5.53151 -31.2315
lfingers 7.12502
lthumb 30.8768 -3.80658
rfemur 20.8579 13.2692 39.9343
rtibia -9.54166e-015
rfoot -14.3533 -20.4309
rtoes 9.07576
lfemur -43.927 -34.4735 0.952451
ltibia 26.8361
lfoot -36.8975 34.7248
ltoes 14.5628
1288
root 14.9619 15.1178 -7.88987 13.1142 -67.2072 -369.455
lowerback 8.77875 6.83261 5.80054
upperback -3.89205 9.91756 0.643118
thorax -8.17192 4.53082 -3.99863
lowerneck -10.601 -5.18004 -11.3498
upperneck 12.7048 -8.70612 21.1364
head 7.10806 -3.34395 8.07647
rclavicle 1.64409e-014 1.55052e-014
rhumerus -21.7962 14.9332 -87.8914
rradius 40.2627
rwrist 13.5416
rhand -9.0775 -51.631
rfingers 7.12502
rthumb 16.8718 -440.918
lclavicle 1.64409e-014 1.55052e-014
lhumerus -68.5422 4.86864 84.114
lradius 32.3028
lwrist -22.2539
lhand 4.84596 -31.3965
lfingers 7.12502
lthumb 30.223 -3.8498
rfemur 21.7971 12.7718 39.4969
rtibia 6.67916e-014
rfoot -14.0388 -19.6425
rtoes 7.9639
lfemur -44.4826 -36.3546 2.00837
ltibia 26.2404
lfoot -40.3279 36.1613
ltoes 20.4123
1289
root 14.7898 15.1068 -7.76642 13.1301 -67.5793 -369.532
lowerback 8.80503 6.81311 5.72397
upperback -3.92247 9.89018 0.703739
thorax -8.24648 4.51849 -3.89897
lowerneck -10.7972 -5.10716 -11.639
upperneck 12.7981 -8.59051 21.3336
head 7.17571 -3.2767 8.2173
rclavicle -9.09114e-014 -3.81667e-014
rhumerus -21.6449 15.5796 -88.0873
rradius 40.6225
rwrist 14.7538
rhand -7.73991 -52.6679
rfingers 7.12502
rthumb 18.1591 -441.84
lclavicle -9.09114e-014 -3.81667e-014
lhumerus -68.2308 5.6691 82.9008
lradius 31.8515
lwrist -23.7602
lhand 4.70356 -31.6482
lfingers 7.12502
lthumb 30.0872 -4.07673
rfemur 22.6534 12.2268 39.1357
rtibia 2.8625e-014
rfoot -13.2909 -18.8811
rtoes 7.7521
lfemur -43.9889 -35.9213 1.28647
ltibia 25.8616
lfoot -40.9072 36.3155
ltoes 23.0418
